<svg xmlns="http://www.w3.org/2000/svg" viewBox="0 0 100 100" width="100%" height="100%">
  <defs>
    <linearGradient id="favicon-gradient" x1="0%" y1="100%" x2="100%" y2="0%">
      <stop offset="0%" stop-color="#6C5CE7" />
      <stop offset="60%" stop-color="#FF6BFF" />
      <stop offset="100%" stop-color="#00D4FF" />
    </linearGradient>
  </defs>
  
  <!-- Main Ribbon Arch -->
  <path 
    d="M 64 80 
       L 78 80 
       L 78 35 
       C 78 20, 68 12, 54 18 
       L 24 75 
       L 15 82 
       L 26 78 
       L 37 75 
       L 55 36 
       C 60 32, 64 35, 64 42 
       Z" 
    fill="url(#favicon-gradient)" 
  />

  <!-- Spark Star -->
  <path 
    d="M 48 45 
       C 48 51, 43 55, 38 55 
       C 43 55, 48 59, 48 65 
       C 48 59, 53 55, 58 55 
       C 53 55, 48 51, 48 45 
       Z" 
    fill="#FFFFFF" 
  />
  <circle cx="48" cy="55" r="1.5" fill="#FFFFFF" opacity="0.9" />
</svg>